<svg xmlns="http://www.w3.org/2000/svg" viewBox="0 0 108.46 108.43"><defs><style>.cls-1{fill:#4d4864;}</style></defs><g id="Layer_2" data-name="Layer 2"><g id="Layer_1-2" data-name="Layer 1"><path class="cls-1" d="M108.08,76.57c-.44,8.69-2.42,16.38-8.76,22.72s-14,8.35-22.72,8.76c-8.95.51-35.79.51-44.74,0-8.69-.43-16.36-2.42-22.72-8.76S.79,85.26.38,76.57c-.51-8.95-.51-35.78,0-44.73.44-8.69,2.4-16.38,8.76-22.72S23.2.79,31.86.38c9-.51,35.79-.51,44.74,0C85.28.82,93,2.8,99.32,9.14s8.35,14,8.76,22.72C108.58,40.81,108.58,67.62,108.08,76.57ZM98.69,54.22c0-7.89.65-24.83-2.18-32A18.26,18.26,0,0,0,86.2,12c-7.11-2.81-24.07-2.18-32-2.18s-24.82-.65-32,2.18A18.29,18.29,0,0,0,12,22.25c-2.81,7.12-2.18,24.08-2.18,32S9.14,79,12,86.18A18.31,18.31,0,0,0,22.28,96.49c7.11,2.8,24.07,2.17,32,2.17s24.83.66,32-2.17A18.31,18.31,0,0,0,96.51,86.18C99.34,79.07,98.69,62.1,98.69,54.22ZM82,54.22a27.8,27.8,0,1,1-27.8-27.8A27.75,27.75,0,0,1,82,54.22Zm-9.72,0A18.08,18.08,0,1,0,54.24,72.29,18.1,18.1,0,0,0,72.32,54.22ZM83.18,31.76a6.49,6.49,0,1,1,6.48-6.48A6.47,6.47,0,0,1,83.18,31.76Z"/></g></g></svg>