<svg xmlns="http://www.w3.org/2000/svg" viewBox="0 0 123.88 92.91"><defs><style>.cls-1{fill:#4d4864;}</style></defs><g id="Layer_2" data-name="Layer 2"><g id="Layer_1-2" data-name="Layer 1"><path class="cls-1" d="M123.88,11.61V81.3a11.61,11.61,0,0,1-11.61,11.61H11.61A11.61,11.61,0,0,1,0,81.3V11.61A11.61,11.61,0,0,1,11.61,0H112.27A11.61,11.61,0,0,1,123.88,11.61Zm-112.27,0v9.88C17,25.91,25.69,32.78,44.18,47.25c4.07,3.21,12.15,10.91,17.76,10.82,5.62.09,13.69-7.61,17.76-10.82,18.49-14.48,27.14-21.34,32.57-25.76V11.61ZM112.27,81.3V36.39c-5.55,4.42-13.41,10.61-25.39,20-5.46,4.29-14.6,13.35-24.94,13.29S42.29,60.55,37,56.39C25,47,17.16,40.81,11.61,36.39V81.3Z"/></g></g></svg>