<svg xmlns="http://www.w3.org/2000/svg" viewBox="0 0 311.18 311.18"><defs><style>.cls-1{font-size:28.81px;fill:#4d4864;font-family:Avenir-Black, Avenir;font-weight:800;}.cls-2{fill:#fff;}.cls-2,.cls-3{stroke:#4d4864;stroke-miterlimit:10;stroke-width:8px;}.cls-3{fill:none;}</style></defs><g id="Layer_2" data-name="Layer 2"><g id="Layer_1-2" data-name="Layer 1"><text class="cls-1" transform="matrix(-0.77, 0.64, -0.64, -0.77, 245.54, 251.11)">S</text><text class="cls-1" transform="translate(227.44 265.53) rotate(151.05)">C</text><text class="cls-1" transform="translate(204.12 277.64) rotate(162.35)">R</text><text class="cls-1" transform="translate(180.02 284.87) rotate(174.57)">O</text><text class="cls-1" transform="translate(149.61 286.69) rotate(-174.05)">L</text><text class="cls-1" transform="translate(127.69 283.83) rotate(-164.32)">L</text><text class="cls-1" transform="matrix(-0.91, -0.41, 0.41, -0.91, 106.47, 277.11)"> </text><text class="cls-1" transform="matrix(-0.84, -0.54, 0.54, -0.84, 92.59, 270.72)">S</text><text class="cls-1" transform="matrix(-0.73, -0.68, 0.68, -0.73, 73.3, 257.92)">C</text><text class="cls-1" transform="translate(54.61 239.46) rotate(-125.71)">R</text><text class="cls-1" transform="translate(40.24 218.78) rotate(-113.56)">O</text><text class="cls-1" transform="translate(29.07 190.45) rotate(-102.01)">L</text><text class="cls-1" transform="translate(25.02 168.7) rotate(-92.32)">L</text><text class="cls-1" transform="translate(24.85 146.47) rotate(-84.18)"> </text><text class="cls-1" transform="translate(26.6 131.26) rotate(-75.69)">S</text><text class="cls-1" transform="translate(32.77 108.98) rotate(-64.82)">C</text><text class="cls-1" transform="matrix(0.59, -0.8, 0.8, 0.59, 44.57, 85.52)">R</text><text class="cls-1" transform="matrix(0.75, -0.66, 0.66, 0.75, 59.85, 65.49)">O</text><text class="cls-1" transform="translate(83.35 46.1) rotate(-30.13)">L</text><text class="cls-1" transform="matrix(0.94, -0.35, 0.35, 0.94, 102.76, 35.48)">L</text><text class="cls-1" transform="translate(123.84 28.42) rotate(-12.14)"> </text><text class="cls-1" transform="translate(138.84 25.41) rotate(-3.68)">S</text><text class="cls-1" transform="translate(161.95 24.38) rotate(7.04)">C</text><text class="cls-1" transform="matrix(0.95, 0.32, -0.32, 0.95, 187.94, 28.3)">R</text><text class="cls-1" transform="matrix(0.86, 0.51, -0.51, 0.86, 211.66, 36.61)">O</text><text class="cls-1" transform="translate(237.35 53.02) rotate(41.96)">L</text><text class="cls-1" transform="matrix(0.62, 0.78, -0.78, 0.62, 253.44, 68.25)">L</text><text class="cls-1" transform="matrix(0.5, 0.86, -0.86, 0.5, 266.68, 86.1)"> </text><text class="cls-1" transform="matrix(0.37, 0.93, -0.93, 0.37, 274.21, 99.42)">S</text><text class="cls-1" transform="translate(282.36 121.07) rotate(79.09)">C</text><text class="cls-1" transform="matrix(-0.02, 1, -1, -0.02, 286.74, 147)">R</text><text class="cls-1" transform="translate(286.1 172.15) rotate(102.45)">O</text><text class="cls-1" transform="translate(278.48 201.64) rotate(114)">L</text><text class="cls-1" transform="translate(268.97 221.61) rotate(123.68)">L</text><circle class="cls-2" cx="155.6" cy="155.6" r="106.44"/><polyline class="cls-3" points="159.38 98.59 100.48 157.31 100.48 157.31 159.38 215.98"/><line class="cls-3" x1="100.48" y1="157.31" x2="219.32" y2="157.31"/></g></g></svg>