<svg xmlns="http://www.w3.org/2000/svg" xmlns:xlink="http://www.w3.org/1999/xlink" viewBox="0 0 308.08 308.14"><defs><style>.cls-1,.cls-4{fill:none;}.cls-2{clip-path:url(#clip-path);}.cls-3{fill:#fff;}.cls-4{stroke:#4d4864;stroke-miterlimit:10;stroke-width:8px;}.cls-5{font-size:26.81px;}.cls-10,.cls-11,.cls-12,.cls-13,.cls-14,.cls-15,.cls-16,.cls-17,.cls-18,.cls-19,.cls-20,.cls-21,.cls-22,.cls-23,.cls-24,.cls-25,.cls-26,.cls-27,.cls-28,.cls-5,.cls-6,.cls-7,.cls-8,.cls-9{fill:#4d4864;font-family:Avenir-Black, Avenir;font-weight:800;}.cls-6{font-size:26.81px;}.cls-7{font-size:26.81px;}.cls-8{font-size:26.81px;}.cls-9{font-size:26.81px;}.cls-10{font-size:26.81px;}.cls-11{font-size:26.81px;}.cls-12{font-size:26.81px;}.cls-13{font-size:26.81px;}.cls-14{font-size:26.81px;}.cls-15{font-size:26.81px;}.cls-16{font-size:26.81px;}.cls-17{font-size:26.81px;}.cls-18{font-size:26.81px;}.cls-19{font-size:26.81px;}.cls-20{font-size:26.81px;}.cls-21{font-size:26.81px;}.cls-22{font-size:26.81px;}.cls-23{font-size:26.81px;}.cls-24{font-size:26.81px;}.cls-25{font-size:26.81px;}.cls-26{font-size:26.81px;}.cls-27{font-size:26.81px;}.cls-28{font-size:26.81px;}</style><clipPath id="clip-path" transform="translate(0.13 0.24)"><rect class="cls-1" width="307.78" height="307.75"/></clipPath></defs><g id="Layer_2" data-name="Layer 2"><g id="Layer_1-2" data-name="Layer 1"><g class="cls-2"><path class="cls-3" d="M47.45,153.88A106.44,106.44,0,1,1,153.89,260.31,106.43,106.43,0,0,1,47.45,153.88" transform="translate(0.13 0.24)"/><circle class="cls-4" cx="153.89" cy="153.88" r="106.44" transform="translate(-0.25 0.63) rotate(-0.14)"/></g><text class="cls-5" transform="matrix(0.77, -0.63, 0.63, 0.77, 64.04, 58.56)">C</text><text class="cls-6" transform="translate(84.34 43) rotate(-29.04)">L</text><g class="cls-2"><text class="cls-7" transform="matrix(0.95, -0.31, 0.31, 0.95, 103.39, 32.78)">O</text><text class="cls-8" transform="translate(131.71 24.79) rotate(-6.38)">S</text><text class="cls-9" transform="translate(154.25 22.85) rotate(3.75)">E</text><text class="cls-10" transform="translate(178.35 25.32) rotate(12.42)"> </text><text class="cls-11" transform="translate(193.27 28.79) rotate(21.47)">C</text></g><text class="cls-12" transform="translate(216.74 38.91) rotate(31.81)">L</text><text class="cls-13" transform="matrix(0.73, 0.68, -0.68, 0.73, 234.93, 50.56)">O</text><text class="cls-14" transform="matrix(0.59, 0.81, -0.81, 0.59, 255.79, 71.37)">S</text><text class="cls-13" transform="translate(268.57 90.05) rotate(64.38)">E</text><g class="cls-2"><text class="cls-15" transform="translate(278.23 112.27) rotate(73.09)"> </text><text class="cls-16" transform="translate(282.51 126.93) rotate(82.1)">C</text><text class="cls-17" transform="translate(285.2 152.4) rotate(92.37)">L</text><text class="cls-12" transform="translate(284 173.95) rotate(103.54)">O</text></g><text class="cls-18" transform="translate(276.08 202.31) rotate(115)">S</text><text class="cls-19" transform="matrix(-0.58, 0.82, -0.82, -0.58, 266, 222.55)">E</text><text class="cls-17" transform="translate(251.31 241.83) rotate(133.79)"> </text><text class="cls-20" transform="matrix(-0.8, 0.61, -0.61, -0.8, 240.59, 252.77)">C</text><text class="cls-21" transform="translate(219.75 267.62) rotate(152.98)">L</text><g class="cls-2"><text class="cls-22" transform="translate(200.38 277.15) rotate(164.2)">O</text><text class="cls-22" transform="matrix(-1, 0.08, -0.08, -1, 171.78, 284.14)">S</text><text class="cls-9" transform="translate(149.18 285.29) rotate(-174.24)">E</text><text class="cls-23" transform="translate(125.16 281.97) rotate(-165.54)"> </text><text class="cls-24" transform="matrix(-0.92, -0.4, 0.4, -0.92, 110.43, 278)">C</text></g><text class="cls-8" transform="translate(87.3 267.04) rotate(-146.19)">L</text><text class="cls-25" transform="translate(69.51 254.75) rotate(-135.11)">O</text><text class="cls-11" transform="matrix(-0.56, -0.83, 0.83, -0.56, 49.41, 233.25)">S</text><g class="cls-2"><text class="cls-21" transform="translate(37.29 214.12) rotate(-113.6)">E</text><text class="cls-26" transform="translate(28.42 191.58) rotate(-104.89)"> </text><text class="cls-13" transform="translate(24.66 176.78) rotate(-95.88)">C</text><text class="cls-26" transform="translate(22.86 151.23) rotate(-85.63)">L</text><text class="cls-27" transform="translate(24.81 129.74) rotate(-74.43)">O</text></g><text class="cls-28" transform="matrix(0.45, -0.89, 0.89, 0.45, 33.73, 101.7)">S</text><text class="cls-16" transform="matrix(0.6, -0.8, 0.8, 0.6, 44.53, 81.79)">E</text><g class="cls-2"><line class="cls-4" x1="207" y1="99.1" x2="145.74" y2="159.85"/><line class="cls-4" x1="99.38" y1="206.47" x2="160.38" y2="145.46"/><line class="cls-4" x1="99.38" y1="99.1" x2="160.63" y2="159.85"/><line class="cls-4" x1="207" y1="206.47" x2="146" y2="145.46"/></g></g></g></svg>