<svg xmlns="http://www.w3.org/2000/svg" viewBox="0 0 311.18 311.18"><defs><style>.cls-1{font-size:28.81px;fill:#4d4864;font-family:Avenir-Black, Avenir;font-weight:800;}.cls-2{fill:#fff;}.cls-2,.cls-3{stroke:#4d4864;stroke-miterlimit:10;stroke-width:8px;}.cls-3{fill:none;}</style></defs><g id="Layer_2" data-name="Layer 2"><g id="Layer_1-2" data-name="Layer 1"><text class="cls-1" transform="matrix(0.77, -0.64, 0.64, 0.77, 65.65, 60.07)">S</text><text class="cls-1" transform="matrix(0.88, -0.48, 0.48, 0.88, 83.74, 45.65)">C</text><text class="cls-1" transform="translate(107.06 33.54) rotate(-17.65)">R</text><text class="cls-1" transform="translate(131.16 26.31) rotate(-5.43)">O</text><text class="cls-1" transform="translate(161.58 24.49) rotate(5.95)">L</text><text class="cls-1" transform="matrix(0.96, 0.27, -0.27, 0.96, 183.5, 27.34)">L</text><text class="cls-1" transform="translate(204.69 34.06) rotate(23.95)"> </text><text class="cls-1" transform="matrix(0.84, 0.54, -0.54, 0.84, 218.6, 40.46)">S</text><text class="cls-1" transform="matrix(0.73, 0.68, -0.68, 0.73, 237.88, 53.26)">C</text><text class="cls-1" transform="translate(256.57 71.72) rotate(54.29)">R</text><text class="cls-1" transform="translate(270.94 92.39) rotate(66.44)">O</text><text class="cls-1" transform="translate(282.11 120.72) rotate(77.99)">L</text><text class="cls-1" transform="matrix(0.04, 1, -1, 0.04, 286.16, 142.48)">L</text><text class="cls-1" transform="translate(286.34 164.71) rotate(95.82)"> </text><text class="cls-1" transform="translate(284.58 179.92) rotate(104.31)">S</text><text class="cls-1" transform="matrix(-0.43, 0.9, -0.9, -0.43, 278.41, 202.2)">C</text><text class="cls-1" transform="translate(266.61 225.66) rotate(126.41)">R</text><text class="cls-1" transform="matrix(-0.75, 0.66, -0.66, -0.75, 251.33, 245.69)">O</text><text class="cls-1" transform="translate(227.84 265.07) rotate(149.87)">L</text><text class="cls-1" transform="matrix(-0.94, 0.35, -0.35, -0.94, 208.42, 275.69)">L</text><text class="cls-1" transform="translate(187.34 282.75) rotate(167.86)"> </text><text class="cls-1" transform="translate(172.34 285.77) rotate(176.32)">S</text><text class="cls-1" transform="translate(149.23 286.79) rotate(-172.96)">C</text><text class="cls-1" transform="matrix(-0.95, -0.32, 0.32, -0.95, 123.24, 282.88)">R</text><text class="cls-1" transform="translate(99.52 274.56) rotate(-149.45)">O</text><text class="cls-1" transform="translate(73.84 258.15) rotate(-138.04)">L</text><text class="cls-1" transform="translate(57.74 242.93) rotate(-128.43)">L</text><text class="cls-1" transform="matrix(-0.5, -0.86, 0.86, -0.5, 44.49, 225.06)"> </text><text class="cls-1" transform="matrix(-0.37, -0.93, 0.93, -0.37, 36.97, 211.75)">S</text><text class="cls-1" transform="translate(28.82 190.11) rotate(-100.91)">C</text><text class="cls-1" transform="translate(24.44 164.17) rotate(-89.07)">R</text><text class="cls-1" transform="matrix(0.22, -0.98, 0.98, 0.22, 25.08, 139.02)">O</text><text class="cls-1" transform="matrix(0.41, -0.91, 0.91, 0.41, 32.7, 109.54)">L</text><text class="cls-1" transform="matrix(0.55, -0.83, 0.83, 0.55, 42.21, 89.56)">L</text><circle class="cls-2" cx="155.59" cy="155.58" r="106.44"/><polyline class="cls-3" points="92.59 154.41 151.3 213.31 151.3 213.31 209.97 154.41"/><line class="cls-3" x1="151.3" y1="213.31" x2="151.3" y2="94.47"/></g></g></svg>