<svg xmlns="http://www.w3.org/2000/svg" width="1547" height="156" viewBox="0 0 1547 156">
  <defs>
    <style>
      .cls-1 {
        fill: #4d4864;
        fill-rule: evenodd;
      }
    </style>
  </defs>
  <path id="References" class="cls-1" d="M0.382,152.779H66.9V97.1Q81,97.1,87.649,110.7t8.525,42.082h69.085q-4.731-44.25-29.073-72.042,17.148-12.023,17.148-33.311,0-19.315-14.585-32.177T98.638,2.388H0.382V152.779ZM70.945,33.334q8.475,0,12.122,4.484a16,16,0,0,1,3.646,10.4q0,14.094-17.936,14.093H66.9V33.334h4.041Zm176.8,81.7V96.505h40.6V58.76h-40.6V40.134H306.09V2.388H181.224V152.779H306.09V115.033H247.747Zm145.167,37.746v-47.6h42.377V67.433H392.914v-27.3h57.16V2.388H326.391V152.779h66.523Zm138.86-37.746V96.505h40.6V58.76h-40.6V40.134h58.343V2.388H465.251V152.779H590.117V115.033H531.774Zm78.644,37.746h66.523V97.1q14.092,0,20.745,13.6t8.525,42.082H775.3q-4.731-44.25-29.073-72.042,17.148-12.023,17.148-33.311,0-19.315-14.586-32.177T708.675,2.388H610.418V152.779ZM680.981,33.334q8.475,0,12.122,4.484a16,16,0,0,1,3.647,10.4q0,14.094-17.937,14.093h-1.872V33.334h4.04Zm176.8,81.7V96.505h40.6V58.76h-40.6V40.134h58.342V2.388H791.261V152.779H916.126V115.033H857.784ZM1085.73,2.388h-66.62V53.241L984.029,2.388h-47.6V152.779h66.522V106.558l32.33,47.4h50.45V2.388ZM1227.01,4.31A131.558,131.558,0,0,0,1194.44.023q-36.465,0-60.12,22.223t-23.65,56.421q0,32.326,22.71,54.449t61.06,22.125a130.705,130.705,0,0,0,32.03-4.237q16.755-4.237,28.58-11.334l-27.89-56.963q-10.65,5.322-25.43,5.322-10.935,0-16.85-3.1t-5.92-8.623q0-11.53,21.19-11.531a82.038,82.038,0,0,1,27.01,4.238l27.89-53.119Q1243.815,8.6,1227.01,4.31Zm112.1,110.723V96.505h40.6V58.76h-40.6V40.134h58.34V2.388H1272.59V152.779h124.86V115.033h-58.34ZM1483.69,0.023q-35.58,0-53.81,12.713t-18.23,37.745q0,12.912,5.81,21.386a42.661,42.661,0,0,0,13.7,13.058,155,155,0,0,0,19.91,9.412q13.305,5.421,16.41,8.476a9.021,9.021,0,0,1,3.1,6.406,7.368,7.368,0,0,1-3.2,6.011,12.639,12.639,0,0,1-7.94,2.464q-9.66,0-20.15-6.5a55.657,55.657,0,0,1-17.59-17.543l-16.26,50.262q28.875,11.334,68.79,11.333,35.565,0,53.9-12.664t18.33-36.809a42.232,42.232,0,0,0-4.63-20.2,36.673,36.673,0,0,0-13.94-14.241q-9.315-5.566-26.56-12.368-15.675-6.109-19.37-8.968t-3.69-5.617q0-8.87,11.72-8.87,21.09,0,37.36,21.977l16.55-47.4Q1516.21,0.023,1483.69.023h0Z"/>
</svg>
